<mxfile host="app.diagrams.net" modified="2023-09-20T12:31:37.646Z" agent="Mozilla/5.0 (Windows NT 10.0; Win64; x64) AppleWebKit/537.36 (KHTML, like Gecko) Chrome/116.0.0.0 Safari/537.36" etag="blCTwX_yLy5ECZnnYQur" version="21.7.5" type="device">
  <diagram name="Page-1" id="6jKWjHOdj_s35Hw46ETf">
    <mxGraphModel dx="1075" dy="1572" grid="1" gridSize="10" guides="1" tooltips="1" connect="1" arrows="1" fold="1" page="1" pageScale="1" pageWidth="850" pageHeight="1100" math="0" shadow="0">
      <root>
        <mxCell id="0" />
        <mxCell id="1" parent="0" />
        <mxCell id="-8LgSP0AD8zpi958Qx39-6" style="edgeStyle=orthogonalEdgeStyle;rounded=0;orthogonalLoop=1;jettySize=auto;html=1;exitX=0.5;exitY=1;exitDx=0;exitDy=0;entryX=0.5;entryY=0;entryDx=0;entryDy=0;" parent="1" source="-8LgSP0AD8zpi958Qx39-1" target="-8LgSP0AD8zpi958Qx39-2" edge="1">
          <mxGeometry relative="1" as="geometry" />
        </mxCell>
        <mxCell id="-8LgSP0AD8zpi958Qx39-1" value="Start" style="rounded=1;whiteSpace=wrap;html=1;" parent="1" vertex="1">
          <mxGeometry x="140" y="-130" width="120" height="60" as="geometry" />
        </mxCell>
        <mxCell id="-8LgSP0AD8zpi958Qx39-7" style="edgeStyle=orthogonalEdgeStyle;rounded=0;orthogonalLoop=1;jettySize=auto;html=1;exitX=0.5;exitY=1;exitDx=0;exitDy=0;" parent="1" source="-8LgSP0AD8zpi958Qx39-2" target="-8LgSP0AD8zpi958Qx39-3" edge="1">
          <mxGeometry relative="1" as="geometry" />
        </mxCell>
        <mxCell id="-8LgSP0AD8zpi958Qx39-2" value="import random" style="rounded=0;whiteSpace=wrap;html=1;" parent="1" vertex="1">
          <mxGeometry x="140" y="-20" width="120" height="60" as="geometry" />
        </mxCell>
        <mxCell id="-8LgSP0AD8zpi958Qx39-8" style="edgeStyle=orthogonalEdgeStyle;rounded=0;orthogonalLoop=1;jettySize=auto;html=1;exitX=0.5;exitY=1;exitDx=0;exitDy=0;entryX=0.5;entryY=0;entryDx=0;entryDy=0;" parent="1" source="-8LgSP0AD8zpi958Qx39-3" target="-8LgSP0AD8zpi958Qx39-4" edge="1">
          <mxGeometry relative="1" as="geometry" />
        </mxCell>
        <mxCell id="-8LgSP0AD8zpi958Qx39-3" value="randomNumber = random.randint(0, 100)" style="rounded=0;whiteSpace=wrap;html=1;" parent="1" vertex="1">
          <mxGeometry x="140" y="100" width="120" height="60" as="geometry" />
        </mxCell>
        <mxCell id="-8LgSP0AD8zpi958Qx39-9" value="" style="edgeStyle=orthogonalEdgeStyle;rounded=0;orthogonalLoop=1;jettySize=auto;html=1;" parent="1" source="-8LgSP0AD8zpi958Qx39-4" target="-8LgSP0AD8zpi958Qx39-5" edge="1">
          <mxGeometry relative="1" as="geometry" />
        </mxCell>
        <mxCell id="-8LgSP0AD8zpi958Qx39-4" value="gameRepeat = &#39;Y&#39;" style="rounded=0;whiteSpace=wrap;html=1;" parent="1" vertex="1">
          <mxGeometry x="140" y="210" width="120" height="60" as="geometry" />
        </mxCell>
        <mxCell id="-8LgSP0AD8zpi958Qx39-33" style="edgeStyle=orthogonalEdgeStyle;rounded=0;orthogonalLoop=1;jettySize=auto;html=1;exitX=0.5;exitY=1;exitDx=0;exitDy=0;entryX=0.5;entryY=0;entryDx=0;entryDy=0;" parent="1" source="-8LgSP0AD8zpi958Qx39-5" target="-8LgSP0AD8zpi958Qx39-32" edge="1">
          <mxGeometry relative="1" as="geometry" />
        </mxCell>
        <mxCell id="-8LgSP0AD8zpi958Qx39-5" value="bestScore = 10000" style="rounded=0;whiteSpace=wrap;html=1;" parent="1" vertex="1">
          <mxGeometry x="140" y="320" width="120" height="60" as="geometry" />
        </mxCell>
        <mxCell id="-8LgSP0AD8zpi958Qx39-13" value="true" style="edgeStyle=orthogonalEdgeStyle;rounded=0;orthogonalLoop=1;jettySize=auto;html=1;exitX=0.5;exitY=1;exitDx=0;exitDy=0;entryX=0.5;entryY=0;entryDx=0;entryDy=0;" parent="1" source="-8LgSP0AD8zpi958Qx39-10" target="-8LgSP0AD8zpi958Qx39-11" edge="1">
          <mxGeometry relative="1" as="geometry" />
        </mxCell>
        <mxCell id="-8LgSP0AD8zpi958Qx39-10" value="while (gameRepeat == &#39;Y&#39;)" style="rhombus;whiteSpace=wrap;html=1;" parent="1" vertex="1">
          <mxGeometry x="130" y="530" width="140" height="130" as="geometry" />
        </mxCell>
        <mxCell id="-8LgSP0AD8zpi958Qx39-15" style="edgeStyle=orthogonalEdgeStyle;rounded=0;orthogonalLoop=1;jettySize=auto;html=1;exitX=0.5;exitY=1;exitDx=0;exitDy=0;entryX=0.5;entryY=0;entryDx=0;entryDy=0;" parent="1" source="-8LgSP0AD8zpi958Qx39-11" target="-8LgSP0AD8zpi958Qx39-14" edge="1">
          <mxGeometry relative="1" as="geometry" />
        </mxCell>
        <mxCell id="-8LgSP0AD8zpi958Qx39-11" value="numberOfAttempts = (numberOfAttempts + 1)" style="rounded=0;whiteSpace=wrap;html=1;" parent="1" vertex="1">
          <mxGeometry x="140" y="700" width="120" height="60" as="geometry" />
        </mxCell>
        <mxCell id="-8LgSP0AD8zpi958Qx39-16" style="edgeStyle=orthogonalEdgeStyle;rounded=0;orthogonalLoop=1;jettySize=auto;html=1;exitX=0.5;exitY=1;exitDx=0;exitDy=0;" parent="1" source="-8LgSP0AD8zpi958Qx39-14" edge="1">
          <mxGeometry relative="1" as="geometry">
            <mxPoint x="199.82352941176475" y="920" as="targetPoint" />
          </mxGeometry>
        </mxCell>
        <mxCell id="-8LgSP0AD8zpi958Qx39-14" value="input UserNumber" style="shape=parallelogram;perimeter=parallelogramPerimeter;whiteSpace=wrap;html=1;fixedSize=1;" parent="1" vertex="1">
          <mxGeometry x="120" y="800" width="160" height="70" as="geometry" />
        </mxCell>
        <mxCell id="-8LgSP0AD8zpi958Qx39-19" style="edgeStyle=orthogonalEdgeStyle;rounded=0;orthogonalLoop=1;jettySize=auto;html=1;exitX=0.5;exitY=1;exitDx=0;exitDy=0;entryX=0.5;entryY=0;entryDx=0;entryDy=0;" parent="1" source="-8LgSP0AD8zpi958Qx39-17" edge="1">
          <mxGeometry relative="1" as="geometry">
            <mxPoint x="200" y="1110" as="targetPoint" />
          </mxGeometry>
        </mxCell>
        <mxCell id="-8LgSP0AD8zpi958Qx39-22" value="false" style="edgeStyle=orthogonalEdgeStyle;rounded=0;orthogonalLoop=1;jettySize=auto;html=1;exitX=1;exitY=0.5;exitDx=0;exitDy=0;entryX=0;entryY=0.5;entryDx=0;entryDy=0;" parent="1" source="-8LgSP0AD8zpi958Qx39-17" target="-8LgSP0AD8zpi958Qx39-21" edge="1">
          <mxGeometry relative="1" as="geometry" />
        </mxCell>
        <mxCell id="-8LgSP0AD8zpi958Qx39-17" value="if ((userNumber &amp;gt; 100) or (userNumber &amp;lt; 0))" style="rhombus;whiteSpace=wrap;html=1;" parent="1" vertex="1">
          <mxGeometry x="120" y="920" width="160" height="140" as="geometry" />
        </mxCell>
        <mxCell id="-8LgSP0AD8zpi958Qx39-20" style="edgeStyle=orthogonalEdgeStyle;rounded=0;orthogonalLoop=1;jettySize=auto;html=1;exitX=0;exitY=0.5;exitDx=0;exitDy=0;entryX=0;entryY=0.5;entryDx=0;entryDy=0;" parent="1" target="-8LgSP0AD8zpi958Qx39-10" edge="1">
          <mxGeometry relative="1" as="geometry">
            <mxPoint x="140" y="1140" as="sourcePoint" />
            <Array as="points">
              <mxPoint x="80" y="1140" />
              <mxPoint x="80" y="595" />
            </Array>
          </mxGeometry>
        </mxCell>
        <mxCell id="-8LgSP0AD8zpi958Qx39-24" value="false" style="edgeStyle=orthogonalEdgeStyle;rounded=0;orthogonalLoop=1;jettySize=auto;html=1;exitX=1;exitY=0.5;exitDx=0;exitDy=0;" parent="1" source="-8LgSP0AD8zpi958Qx39-21" target="-8LgSP0AD8zpi958Qx39-23" edge="1">
          <mxGeometry relative="1" as="geometry" />
        </mxCell>
        <mxCell id="-8LgSP0AD8zpi958Qx39-37" value="true" style="edgeStyle=orthogonalEdgeStyle;rounded=0;orthogonalLoop=1;jettySize=auto;html=1;exitX=0.5;exitY=1;exitDx=0;exitDy=0;entryX=0.5;entryY=0;entryDx=0;entryDy=0;" parent="1" source="-8LgSP0AD8zpi958Qx39-21" edge="1">
          <mxGeometry relative="1" as="geometry">
            <mxPoint x="440" y="1110" as="targetPoint" />
          </mxGeometry>
        </mxCell>
        <mxCell id="-8LgSP0AD8zpi958Qx39-21" value="if (userNumber == randomNumber)" style="rhombus;whiteSpace=wrap;html=1;" parent="1" vertex="1">
          <mxGeometry x="360" y="920" width="160" height="140" as="geometry" />
        </mxCell>
        <mxCell id="-8LgSP0AD8zpi958Qx39-25" value="false" style="edgeStyle=orthogonalEdgeStyle;rounded=0;orthogonalLoop=1;jettySize=auto;html=1;exitX=1;exitY=0.5;exitDx=0;exitDy=0;" parent="1" source="-8LgSP0AD8zpi958Qx39-23" edge="1">
          <mxGeometry relative="1" as="geometry">
            <mxPoint x="840" y="989.7391304347827" as="targetPoint" />
          </mxGeometry>
        </mxCell>
        <mxCell id="-8LgSP0AD8zpi958Qx39-28" value="true" style="edgeStyle=orthogonalEdgeStyle;rounded=0;orthogonalLoop=1;jettySize=auto;html=1;exitX=0.5;exitY=1;exitDx=0;exitDy=0;entryX=0.5;entryY=0;entryDx=0;entryDy=0;" parent="1" source="-8LgSP0AD8zpi958Qx39-23" edge="1">
          <mxGeometry relative="1" as="geometry">
            <mxPoint x="680" y="1110" as="targetPoint" />
          </mxGeometry>
        </mxCell>
        <mxCell id="-8LgSP0AD8zpi958Qx39-23" value="if (userNumber &amp;gt; randomNumber)" style="rhombus;whiteSpace=wrap;html=1;" parent="1" vertex="1">
          <mxGeometry x="600" y="920" width="160" height="140" as="geometry" />
        </mxCell>
        <mxCell id="-8LgSP0AD8zpi958Qx39-35" style="edgeStyle=orthogonalEdgeStyle;rounded=0;orthogonalLoop=1;jettySize=auto;html=1;exitX=1;exitY=0.5;exitDx=0;exitDy=0;" parent="1" source="-8LgSP0AD8zpi958Qx39-55" edge="1">
          <mxGeometry relative="1" as="geometry">
            <mxPoint x="980" y="990" as="targetPoint" />
            <mxPoint x="740" y="1140" as="sourcePoint" />
          </mxGeometry>
        </mxCell>
        <mxCell id="-8LgSP0AD8zpi958Qx39-34" style="edgeStyle=orthogonalEdgeStyle;rounded=0;orthogonalLoop=1;jettySize=auto;html=1;exitX=0.5;exitY=1;exitDx=0;exitDy=0;entryX=0.5;entryY=0;entryDx=0;entryDy=0;" parent="1" source="-8LgSP0AD8zpi958Qx39-32" target="-8LgSP0AD8zpi958Qx39-10" edge="1">
          <mxGeometry relative="1" as="geometry" />
        </mxCell>
        <mxCell id="-8LgSP0AD8zpi958Qx39-32" value="numberOfAttempts = 0" style="rounded=0;whiteSpace=wrap;html=1;" parent="1" vertex="1">
          <mxGeometry x="140" y="430" width="120" height="60" as="geometry" />
        </mxCell>
        <mxCell id="-8LgSP0AD8zpi958Qx39-39" style="edgeStyle=orthogonalEdgeStyle;rounded=0;orthogonalLoop=1;jettySize=auto;html=1;exitX=0.5;exitY=1;exitDx=0;exitDy=0;" parent="1" edge="1">
          <mxGeometry relative="1" as="geometry">
            <mxPoint x="440.2962962962963" y="1220" as="targetPoint" />
            <mxPoint x="440" y="1170" as="sourcePoint" />
          </mxGeometry>
        </mxCell>
        <mxCell id="-8LgSP0AD8zpi958Qx39-41" style="edgeStyle=orthogonalEdgeStyle;rounded=0;orthogonalLoop=1;jettySize=auto;html=1;exitX=0.5;exitY=1;exitDx=0;exitDy=0;" parent="1" target="-8LgSP0AD8zpi958Qx39-40" edge="1">
          <mxGeometry relative="1" as="geometry">
            <mxPoint x="445" y="1280" as="sourcePoint" />
          </mxGeometry>
        </mxCell>
        <mxCell id="-8LgSP0AD8zpi958Qx39-47" style="edgeStyle=orthogonalEdgeStyle;rounded=0;orthogonalLoop=1;jettySize=auto;html=1;exitX=0.5;exitY=1;exitDx=0;exitDy=0;entryX=0.5;entryY=0;entryDx=0;entryDy=0;" parent="1" source="-8LgSP0AD8zpi958Qx39-40" target="-8LgSP0AD8zpi958Qx39-43" edge="1">
          <mxGeometry relative="1" as="geometry" />
        </mxCell>
        <mxCell id="-8LgSP0AD8zpi958Qx39-40" value="bestScore = numberOfAttempts if (numberOfAttempts &amp;lt; bestScore)" style="rounded=0;whiteSpace=wrap;html=1;" parent="1" vertex="1">
          <mxGeometry x="370" y="1320" width="150" height="60" as="geometry" />
        </mxCell>
        <mxCell id="-8LgSP0AD8zpi958Qx39-48" style="edgeStyle=orthogonalEdgeStyle;rounded=0;orthogonalLoop=1;jettySize=auto;html=1;exitX=0.5;exitY=1;exitDx=0;exitDy=0;" parent="1" source="-8LgSP0AD8zpi958Qx39-43" target="-8LgSP0AD8zpi958Qx39-44" edge="1">
          <mxGeometry relative="1" as="geometry" />
        </mxCell>
        <mxCell id="-8LgSP0AD8zpi958Qx39-43" value="output bestScore" style="shape=parallelogram;perimeter=parallelogramPerimeter;whiteSpace=wrap;html=1;fixedSize=1;" parent="1" vertex="1">
          <mxGeometry x="362.5" y="1430" width="165" height="60" as="geometry" />
        </mxCell>
        <mxCell id="-8LgSP0AD8zpi958Qx39-49" style="edgeStyle=orthogonalEdgeStyle;rounded=0;orthogonalLoop=1;jettySize=auto;html=1;exitX=0.5;exitY=1;exitDx=0;exitDy=0;entryX=0.5;entryY=0;entryDx=0;entryDy=0;" parent="1" source="-8LgSP0AD8zpi958Qx39-44" target="-8LgSP0AD8zpi958Qx39-45" edge="1">
          <mxGeometry relative="1" as="geometry" />
        </mxCell>
        <mxCell id="-8LgSP0AD8zpi958Qx39-44" value="numberOfAttempts = 0" style="rounded=0;whiteSpace=wrap;html=1;" parent="1" vertex="1">
          <mxGeometry x="385" y="1540" width="120" height="60" as="geometry" />
        </mxCell>
        <mxCell id="-8LgSP0AD8zpi958Qx39-50" style="edgeStyle=orthogonalEdgeStyle;rounded=0;orthogonalLoop=1;jettySize=auto;html=1;exitX=0.5;exitY=1;exitDx=0;exitDy=0;entryX=0.54;entryY=0.025;entryDx=0;entryDy=0;entryPerimeter=0;" parent="1" source="-8LgSP0AD8zpi958Qx39-45" target="-8LgSP0AD8zpi958Qx39-46" edge="1">
          <mxGeometry relative="1" as="geometry" />
        </mxCell>
        <mxCell id="-8LgSP0AD8zpi958Qx39-45" value="randomNumber = random.randint(0, 100)" style="rounded=0;whiteSpace=wrap;html=1;" parent="1" vertex="1">
          <mxGeometry x="385" y="1640" width="120" height="60" as="geometry" />
        </mxCell>
        <mxCell id="-8LgSP0AD8zpi958Qx39-52" value="true" style="edgeStyle=orthogonalEdgeStyle;rounded=0;orthogonalLoop=1;jettySize=auto;html=1;exitX=1;exitY=0.5;exitDx=0;exitDy=0;" parent="1" source="3J5hLxcq_-RKQ3lpS1Hq-1" edge="1">
          <mxGeometry relative="1" as="geometry">
            <mxPoint x="980" y="1140" as="targetPoint" />
          </mxGeometry>
        </mxCell>
        <mxCell id="3J5hLxcq_-RKQ3lpS1Hq-2" style="edgeStyle=orthogonalEdgeStyle;rounded=0;orthogonalLoop=1;jettySize=auto;html=1;exitX=0.5;exitY=1;exitDx=0;exitDy=0;entryX=0.5;entryY=0;entryDx=0;entryDy=0;" edge="1" parent="1" source="-8LgSP0AD8zpi958Qx39-46" target="3J5hLxcq_-RKQ3lpS1Hq-1">
          <mxGeometry relative="1" as="geometry" />
        </mxCell>
        <mxCell id="-8LgSP0AD8zpi958Qx39-46" value="ask if the user wants to play again( Y or N)" style="shape=parallelogram;perimeter=parallelogramPerimeter;whiteSpace=wrap;html=1;fixedSize=1;" parent="1" vertex="1">
          <mxGeometry x="365" y="1750" width="150" height="60" as="geometry" />
        </mxCell>
        <mxCell id="-8LgSP0AD8zpi958Qx39-53" value="print(&#39;Please enter a number in the range! &#39;)" style="shape=parallelogram;perimeter=parallelogramPerimeter;whiteSpace=wrap;html=1;fixedSize=1;" parent="1" vertex="1">
          <mxGeometry x="130" y="1110" width="150" height="60" as="geometry" />
        </mxCell>
        <mxCell id="-8LgSP0AD8zpi958Qx39-54" value="&#xa;&lt;br style=&quot;border-color: var(--border-color); color: rgb(0, 0, 0); font-family: Helvetica; font-size: 12px; font-style: normal; font-variant-ligatures: normal; font-variant-caps: normal; font-weight: 400; letter-spacing: normal; orphans: 2; text-align: center; text-indent: 0px; text-transform: none; widows: 2; word-spacing: 0px; -webkit-text-stroke-width: 0px; background-color: rgb(251, 251, 251); text-decoration-thickness: initial; text-decoration-style: initial; text-decoration-color: initial;&quot;&gt;&lt;span style=&quot;color: rgb(0, 0, 0); font-family: Helvetica; font-size: 12px; font-style: normal; font-variant-ligatures: normal; font-variant-caps: normal; font-weight: 400; letter-spacing: normal; orphans: 2; text-align: center; text-indent: 0px; text-transform: none; widows: 2; word-spacing: 0px; -webkit-text-stroke-width: 0px; background-color: rgb(251, 251, 251); text-decoration-thickness: initial; text-decoration-style: initial; text-decoration-color: initial; float: none; display: inline !important;&quot;&gt;print(&#39;Correct!&lt;/span&gt;&#xa;&#xa;" style="shape=parallelogram;perimeter=parallelogramPerimeter;whiteSpace=wrap;html=1;fixedSize=1;" parent="1" vertex="1">
          <mxGeometry x="380" y="1110" width="120" height="60" as="geometry" />
        </mxCell>
        <mxCell id="-8LgSP0AD8zpi958Qx39-55" value="print(&#39;Go lower&#39;)" style="shape=parallelogram;perimeter=parallelogramPerimeter;whiteSpace=wrap;html=1;fixedSize=1;" parent="1" vertex="1">
          <mxGeometry x="620" y="1110" width="120" height="60" as="geometry" />
        </mxCell>
        <mxCell id="-8LgSP0AD8zpi958Qx39-58" style="edgeStyle=orthogonalEdgeStyle;rounded=0;orthogonalLoop=1;jettySize=auto;html=1;exitX=1;exitY=0.5;exitDx=0;exitDy=0;entryX=1;entryY=0.5;entryDx=0;entryDy=0;" parent="1" source="-8LgSP0AD8zpi958Qx39-56" target="-8LgSP0AD8zpi958Qx39-10" edge="1">
          <mxGeometry relative="1" as="geometry">
            <Array as="points">
              <mxPoint x="980" y="990" />
              <mxPoint x="980" y="595" />
            </Array>
          </mxGeometry>
        </mxCell>
        <mxCell id="-8LgSP0AD8zpi958Qx39-56" value="print(&#39;Go higher&#39;)" style="shape=parallelogram;perimeter=parallelogramPerimeter;whiteSpace=wrap;html=1;fixedSize=1;" parent="1" vertex="1">
          <mxGeometry x="830" y="960" width="120" height="60" as="geometry" />
        </mxCell>
        <mxCell id="-8LgSP0AD8zpi958Qx39-59" value="&lt;br style=&quot;border-color: var(--border-color);&quot;&gt;output numberOfAttemts" style="shape=parallelogram;perimeter=parallelogramPerimeter;whiteSpace=wrap;html=1;fixedSize=1;" parent="1" vertex="1">
          <mxGeometry x="360" y="1220" width="165" height="60" as="geometry" />
        </mxCell>
        <mxCell id="3J5hLxcq_-RKQ3lpS1Hq-4" value="false" style="edgeStyle=orthogonalEdgeStyle;rounded=0;orthogonalLoop=1;jettySize=auto;html=1;exitX=0;exitY=0.5;exitDx=0;exitDy=0;" edge="1" parent="1" source="3J5hLxcq_-RKQ3lpS1Hq-1">
          <mxGeometry relative="1" as="geometry">
            <mxPoint x="270" y="1929.666666666667" as="targetPoint" />
          </mxGeometry>
        </mxCell>
        <mxCell id="3J5hLxcq_-RKQ3lpS1Hq-1" value="if Input == Y" style="rhombus;whiteSpace=wrap;html=1;" vertex="1" parent="1">
          <mxGeometry x="342.5" y="1860" width="195" height="140" as="geometry" />
        </mxCell>
        <mxCell id="3J5hLxcq_-RKQ3lpS1Hq-3" value="End" style="rounded=1;whiteSpace=wrap;html=1;" vertex="1" parent="1">
          <mxGeometry x="150" y="1900" width="120" height="60" as="geometry" />
        </mxCell>
      </root>
    </mxGraphModel>
  </diagram>
</mxfile>
